<svg class="icon" viewBox="0 0 1024 1024" xmlns="http://www.w3.org/2000/svg" width="200" height="200"><defs><style/></defs><path d="M512 128L128 326.4h768zM128 832h768v64H128v-64zm102.4-448v384c0 19.2 12.8 32 32 32s32-12.8 32-32V384c0-19.2-12.8-32-32-32s-32 12.8-32 32zm160 0v384c0 19.2 12.8 32 32 32s32-12.8 32-32V384c0-19.2-12.8-32-32-32s-32 12.8-32 32zm179.2 0v384c0 19.2 12.8 32 32 32s32-12.8 32-32V384c0-19.2-12.8-32-32-32s-32 12.8-32 32zm166.4 0v384c0 19.2 12.8 32 32 32s32-12.8 32-32V384c0-19.2-12.8-32-32-32s-32 12.8-32 32z"/></svg>